<svg xmlns="http://www.w3.org/2000/svg" fill="none" viewBox="0 0 512 512"><defs><linearGradient id="a" x1="0" x2="0" y1="116" y2="324" gradientUnits="userSpaceOnUse"><stop offset="0" stop-color="#ff71ce"/><stop offset=".55" stop-color="#b967ff"/><stop offset="1" stop-color="#01cdfe"/></linearGradient><linearGradient id="c" x1="64" x2="448" y1="72" y2="452" gradientUnits="userSpaceOnUse"><stop offset="0" stop-color="#ff71ce"/><stop offset=".5" stop-color="#b967ff"/><stop offset="1" stop-color="#01cdfe"/></linearGradient><mask id="b"><path fill="#fff" d="M0 0h512v512H0z"/><path fill="#000" d="M112 252h288v18H112zm0 40h288v24H112z"/></mask></defs><circle cx="256" cy="220" r="104" fill="url(#a)" mask="url(#b)"/><path stroke="url(#c)" stroke-linejoin="round" stroke-width="34" d="M136 72h240a72 72 0 0 1 72 72v160a72 72 0 0 1-72 72H232l-76 64 8-64h-28a72 72 0 0 1-72-72V144a72 72 0 0 1 72-72Z"/></svg>